<?xml version="1.0" encoding="utf-8"?>
<!-- Generator: Adobe Illustrator 16.0.4, SVG Export Plug-In . SVG Version: 6.00 Build 0)  -->
<!DOCTYPE svg PUBLIC "-//W3C//DTD SVG 1.1//EN" "http://www.w3.org/Graphics/SVG/1.1/DTD/svg11.dtd">
<svg version="1.1" id="Layer_1" xmlns="http://www.w3.org/2000/svg" xmlns:xlink="http://www.w3.org/1999/xlink" x="0px" y="0px"
	 width="48px" height="30px" viewBox="0 0 48 30" enable-background="new 0 0 48 30" xml:space="preserve">
<g id="show_x5F_lines_2_">
	<path fill="#FFFFFF" d="M48,29c0,0.6-0.4,1-1,1H1c-0.6,0-1-0.4-1-1v-4c0-0.6,0.4-1,1-1h46c0.6,0,1,0.4,1,1V29z M48,13
		c0-0.6-0.4-1-1-1H1c-0.6,0-1,0.4-1,1v4c0,0.6,0.4,1,1,1h46c0.6,0,1-0.4,1-1V13z M48,1c0-0.6-0.4-1-1-1H1C0.4,0,0,0.4,0,1v4
		c0,0.6,0.4,1,1,1h46c0.6,0,1-0.4,1-1V1z"/>
</g>
</svg>
