<?xml version="1.0" encoding="utf-8"?>
<!-- Generator: Adobe Illustrator 16.0.4, SVG Export Plug-In . SVG Version: 6.00 Build 0)  -->
<!DOCTYPE svg PUBLIC "-//W3C//DTD SVG 1.1//EN" "http://www.w3.org/Graphics/SVG/1.1/DTD/svg11.dtd">
<svg version="1.1" id="Layer_1" xmlns="http://www.w3.org/2000/svg" xmlns:xlink="http://www.w3.org/1999/xlink" x="0px" y="0px"
	 width="300px" height="300px" viewBox="0 0 300 300" enable-background="new 0 0 300 300" xml:space="preserve">
<title>search icon</title>
<g>
	<title>Layer 1</title>
	<path id="path12423" fill="#062728" d="M35.939,35.086C-7.334,78.358-7.44,149.245,35.833,192.518
		c36.663,36.664,93.202,42.25,135.921,16.767l76.344,74.235c10.508,10.197,27.086,9.82,37.117-0.845
		c10.033-10.665,9.77-27.446-0.738-37.644l-75.183-72.864c26.36-42.847,21.008-100.045-16.028-137.081
		C149.993-8.187,79.211-8.187,35.939,35.086L35.939,35.086L35.939,35.086z M67.678,66.825c26.102-26.102,67.746-26.102,93.848,0
		c26.103,26.102,26.103,67.746,0,93.848c-26.102,26.103-67.746,26.103-93.848,0C41.576,134.571,41.576,92.927,67.678,66.825z"/>
</g>
</svg>
